<svg xmlns="http://www.w3.org/2000/svg" width="635" height="635" viewBox="0 0 635 635"><style>.a{fill:none;stroke:#000;}.b{fill:none;stroke-width:0.9;stroke:#000;}.c{font-family:Courier New;font-size:18px;line-height:100%;stroke-width:1px;text-align:center;text-anchor:middle;}.d{fill:none;stroke-width:0.6;stroke:#000;}</style><g transform="translate(-82.45402 -234.81619)"><circle cx="86" cy="552" r="5" style="stroke:red;fill:red;" class="d"/><path d="M396.7 552.4L403.3 552.4" class="a"/><path d="M400 555.6L400 549.1" class="a"/><path d="M82.9 552.4L119.7 552.4" class="b"/><text transform="matrix(0 -1 1 0 -22 -0.0000019203698)" y="158.2" x="-552.3" class="c"><tspan y="158.2" x="-552.3">  0</tspan></text><path d="M87.7 497.3L124 503.7" class="b"/><text x="-474.5" y="226.1" transform="matrix(0.1736482 -0.9848078 0.9848078 0.1736482 0 0)" class="c"><tspan x="-474.5" y="226.1">  10</tspan></text><path d="M102 443.9L136.6 456.5" class="b"/><text x="-382.2" y="301" transform="matrix(0.3420202 -0.9396926 0.9396926 0.3420202 0 0)" class="c"><tspan x="-382.2" y="301">  20</tspan></text><path d="M125.4 393.8L157.3 412.2" class="b"/><text x="-278.3" y="358.8" transform="matrix(0.5 -0.8660254 0.8660254 0.5 0 0)" class="c"><tspan x="-278.3" y="358.8">  30</tspan></text><path d="M157.1 348.5L185.3 372.2" class="b"/><text x="-166" y="397.7" transform="matrix(0.6427876 -0.7660444 0.7660444 0.6427876 0 0)" class="c"><tspan x="-166" y="397.7">  40</tspan></text><path d="M196.2 309.5L219.8 337.6" class="b"/><text x="-31.7" y="430.6" transform="matrix(0.7660444 -0.6427876 0.6427876 0.7660444 -22 -0.0000019203698)" class="c"><tspan x="-31.7" y="430.6">  50</tspan></text><path d="M241.5 277.7L259.9 309.6" class="b"/><text x="70.3" y="414.6" transform="matrix(0.8660254 -0.5 0.5 0.8660254 0 0)" class="c"><tspan x="70.3" y="414.6">  60</tspan></text><path d="M291.5 254.4L304.1 289" class="b"/><text x="187" y="392.1" transform="matrix(0.9396926 -0.3420202 0.3420202 0.9396926 0 0)" class="c"><tspan x="187" y="392.1">  70</tspan></text><path d="M344.9 240.1L351.3 276.3" class="b"/><text x="298.1" y="349.7" transform="matrix(0.9848078 -0.1736482 0.1736482 0.9848078 0 0)" class="c"><tspan x="298.1" y="349.7">  80</tspan></text><path d="M400 235.3L400 272.1" class="b"/><text x="400.1" y="288.6" class="c"><tspan x="400.1" y="288.6">  90</tspan></text><path d="M455.1 240.1L448.7 276.3" class="b"/><text x="489.9" y="210.7" transform="matrix(0.9848078 0.1736482 -0.1736482 0.9848078 0 0)" class="c"><tspan x="489.9" y="210.7">  100</tspan></text><path d="M508.5 254.4L495.9 289" class="b"/><text x="564.9" y="118.5" transform="matrix(0.9396926 0.3420201 -0.3420201 0.9396926 0 0)" class="c"><tspan x="564.9" y="118.5">  110</tspan></text><path d="M558.5 277.7L540.1 309.6" class="b"/><text x="622.7" y="14.6" transform="matrix(0.8660254 0.5 -0.5 0.8660254 0 0)" class="c"><tspan x="622.7" y="14.6">  120</tspan></text><path d="M603.8 309.5L580.2 337.6" class="b"/><text x="661.5" y="-97.7" transform="matrix(0.7660445 0.6427876 -0.6427876 0.7660445 0 0)" class="c"><tspan x="661.5" y="-97.7">  130</tspan></text><path d="M642.9 348.5L614.7 372.2" class="b"/><text x="680.3" y="-215.1" transform="matrix(0.6427876 0.7660445 -0.7660445 0.6427876 0 0)" class="c"><tspan x="680.3" y="-215.1">  140</tspan></text><path d="M674.6 393.8L642.7 412.2" class="b"/><text x="678.4" y="-334" transform="matrix(0.5 0.8660254 -0.8660254 0.5 0 0)" class="c"><tspan x="678.4" y="-334">  150</tspan></text><path d="M698 443.9L663.4 456.5" class="b"/><text x="655.9" y="-450.7" transform="matrix(0.3420201 0.9396926 -0.9396926 0.3420201 0 0)" class="c"><tspan x="655.9" y="-450.7">  160</tspan></text><path d="M712.3 497.3L676 503.7" class="b"/><text x="613.5" y="-561.8" transform="matrix(0.1736482 0.9848078 -0.9848078 0.1736482 0 0)" class="c"><tspan x="613.5" y="-561.8">  170</tspan></text><path d="M717.1 552.4L680.3 552.4" class="b"/><text x="552.4" y="-663.8" transform="matrix(0 1 -1 0 0 0)" class="c"><tspan x="552.4" y="-663.8">  180</tspan></text><path d="M712.3 607.4L676 601" class="b"/><text x="474.6" y="-753.6" transform="matrix(-0.1736482 0.9848078 -0.9848078 -0.1736482 0 0)" class="c"><tspan x="474.6" y="-753.6">  190</tspan></text><path d="M698 660.8L663.4 648.2" class="b"/><text x="382.3" y="-828.6" transform="matrix(-0.3420201 0.9396926 -0.9396926 -0.3420201 0 0)" class="c"><tspan x="382.3" y="-828.6">  200</tspan></text><path d="M674.6 710.9L642.7 692.5" class="b"/><text x="278.4" y="-886.4" transform="matrix(-0.5 0.8660254 -0.8660254 -0.5 0 0)" class="c"><tspan x="278.4" y="-886.4">  210</tspan></text><path d="M642.9 756.2L614.7 732.5" class="b"/><text x="166.1" y="-925.2" transform="matrix(-0.6427876 0.7660445 -0.7660445 -0.6427876 0 0)" class="c"><tspan x="166.1" y="-925.2">  220</tspan></text><path d="M603.8 795.3L580.2 767.1" class="b"/><text x="48.7" y="-944" transform="matrix(-0.7660445 0.6427876 -0.6427876 -0.7660445 0 0)" class="c"><tspan x="48.7" y="-944">  230</tspan></text><path d="M558.5 827L540.1 795.1" class="b"/><text x="-70.2" y="-942.1" transform="matrix(-0.8660254 0.5 -0.5 -0.8660254 0 0)" class="c"><tspan x="-70.2" y="-942.1">  240</tspan></text><path d="M508.5 850.3L495.9 815.8" class="b"/><text x="-186.9" y="-919.6" transform="matrix(-0.9396926 0.3420201 -0.3420201 -0.9396926 0 0)" class="c"><tspan x="-186.9" y="-919.6">  250</tspan></text><path d="M455.1 864.6L448.7 828.4" class="b"/><text x="-297.9" y="-877.2" transform="matrix(-0.9848078 0.1736482 -0.1736482 -0.9848078 0 0)" class="c"><tspan x="-297.9" y="-877.2">  260</tspan></text><path d="M400 869.5L400 832.7" class="b"/><text x="-399.9" y="-816.1" transform="scale(-1 -1)" class="c"><tspan x="-399.9" y="-816.1">  90</tspan></text><path d="M344.9 864.6L351.3 828.4" class="b"/><text x="-489.8" y="-738.3" transform="matrix(-0.9848078 -0.1736482 0.1736482 -0.9848078 0 0)" class="c"><tspan x="-489.8" y="-738.3">  80</tspan></text><path d="M291.5 850.3L304.1 815.8" class="b"/><text x="-564.7" y="-646" transform="matrix(-0.9396926 -0.3420201 0.3420201 -0.9396926 0 0)" class="c"><tspan x="-564.7" y="-646">  70</tspan></text><path d="M241.5 827L259.9 795.1" class="b"/><text x="-622.5" y="-542.1" transform="matrix(-0.8660254 -0.5 0.5 -0.8660254 0 0)" class="c"><tspan x="-622.5" y="-542.1">  60</tspan></text><path d="M196.2 795.3L219.8 767.1" class="b"/><text x="-661.4" y="-429.8" transform="matrix(-0.7660445 -0.6427876 0.6427876 -0.7660445 0 0)" class="c"><tspan x="-661.4" y="-429.8">  50</tspan></text><path d="M157.1 756.2L185.3 732.5" class="b"/><text x="-680.2" y="-312.4" transform="matrix(-0.6427876 -0.7660445 0.7660445 -0.6427876 0 0)" class="c"><tspan x="-680.2" y="-312.4">  40</tspan></text><path d="M125.4 710.9L157.3 692.5" class="b"/><text x="-678.3" y="-193.5" transform="matrix(-0.5 -0.8660254 0.8660254 -0.5 0 0)" class="c"><tspan x="-678.3" y="-193.5">  30</tspan></text><path d="M102 660.8L136.6 648.2" class="b"/><text x="-655.8" y="-76.8" transform="matrix(-0.3420201 -0.9396926 0.9396926 -0.3420201 0 0)" class="c"><tspan x="-655.8" y="-76.8">  20</tspan></text><path d="M87.7 607.4L124 601" class="b"/><text x="-613.4" y="34.2" transform="matrix(-0.1736482 -0.9848078 0.9848078 -0.1736482 0 0)" class="c"><tspan x="-613.4" y="34.2">  10</tspan></text><path d="M82.9 552.4L119.7 552.4" class="b"/><path d="M82.8 546.8L101.2 547.1" class="d"/><path d="M83 541.3L101.4 541.9" class="d"/><path d="M83.2 535.8L101.6 536.7" class="d"/><path d="M83.5 530.2L101.9 531.5" class="d"/><path d="M84.5 519.2L102.8 521.1" class="d"/><path d="M85.1 513.7L103.4 515.9" class="d"/><path d="M85.9 508.2L104.1 510.8" class="d"/><path d="M86.7 502.7L104.9 505.6" class="d"/><path d="M84.1 524.7L110.1 527" class="b"/><path d="M88.6 491.8L106.7 495.3" class="d"/><path d="M89.7 486.4L107.7 490.2" class="d"/><path d="M90.9 481L108.8 485.1" class="d"/><path d="M92.2 475.6L110 480.1" class="d"/><path d="M95.1 464.9L112.7 470" class="d"/><path d="M96.6 459.6L114.2 465" class="d"/><path d="M98.3 454.3L115.8 460" class="d"/><path d="M100.1 449.1L117.5 455.1" class="d"/><path d="M93.7 470.3L118.9 477" class="b"/><path d="M103.8 438.7L121 445.3" class="d"/><path d="M105.9 433.5L122.9 440.4" class="d"/><path d="M108 428.4L124.9 435.6" class="d"/><path d="M110.2 423.3L127 430.8" class="d"/><path d="M114.9 413.3L131.4 421.4" class="d"/><path d="M117.3 408.3L133.7 416.7" class="d"/><path d="M119.9 403.4L136.2 412.1" class="d"/><path d="M122.5 398.6L138.6 407.5" class="d"/><path d="M112.6 418.4L136.3 429.4" class="b"/><path d="M128.1 389L143.9 398.5" class="d"/><path d="M131 384.3L146.6 394" class="d"/><path d="M133.9 379.6L149.4 389.6" class="d"/><path d="M137 375L152.3 385.3" class="d"/><path d="M143.4 365.9L158.2 376.7" class="d"/><path d="M146.6 361.4L161.3 372.5" class="d"/><path d="M150 357.1L164.5 368.4" class="d"/><path d="M153.5 352.7L167.8 364.3" class="d"/><path d="M140.2 370.5L161.6 385.4" class="b"/><path d="M160.6 344.2L174.5 356.3" class="d"/><path d="M164.3 340.1L177.9 352.4" class="d"/><path d="M168 336L181.5 348.6" class="d"/><path d="M171.8 332L185 344.8" class="d"/><path d="M179.6 324.2L192.4 337.4" class="d"/><path d="M183.7 320.4L196.2 333.8" class="d"/><path d="M187.7 316.6L200 330.3" class="d"/><path d="M191.9 312.9L204 326.8" class="d"/><path d="M175.8 328.1L194.2 346.6" class="b"/><path d="M200.4 305.8L211.9 320.1" class="d"/><path d="M204.7 302.4L216 316.9" class="d"/><path d="M209.1 299L220.2 313.7" class="d"/><path d="M213.5 295.7L224.4 310.6" class="d"/><path d="M222.6 289.4L232.9 304.6" class="d"/><path d="M227.2 286.3L237.2 301.7" class="d"/><path d="M231.9 283.3L241.6 298.9" class="d"/><path d="M236.6 280.4L246.1 296.2" class="d"/><path d="M218.1 292.6L233.1 314" class="b"/><path d="M246.2 274.9L255.1 291" class="d"/><path d="M251.1 272.3L259.7 288.5" class="d"/><path d="M256 269.7L264.3 286.1" class="d"/><path d="M260.9 267.2L269 283.8" class="d"/><path d="M271 262.6L278.5 279.4" class="d"/><path d="M276 260.4L283.2 277.3" class="d"/><path d="M281.2 258.2L288.1 275.3" class="d"/><path d="M286.3 256.2L292.9 273.4" class="d"/><path d="M266 265L277 288.6" class="b"/><path d="M296.7 252.4L302.7 269.8" class="d"/><path d="M302 250.7L307.7 268.2" class="d"/><path d="M307.3 249L312.6 266.6" class="d"/><path d="M312.6 247.4L317.6 265.1" class="d"/><path d="M323.3 244.6L327.7 262.4" class="d"/><path d="M328.6 243.3L332.8 261.2" class="d"/><path d="M334 242.1L337.9 260.1" class="d"/><path d="M339.5 241L343 259" class="d"/><path d="M317.9 246.1L324.7 271.3" class="b"/><path d="M350.4 239L353.3 257.2" class="d"/><path d="M355.9 238.2L358.4 256.4" class="d"/><path d="M361.3 237.5L363.6 255.8" class="d"/><path d="M366.8 236.9L368.8 255.2" class="d"/><path d="M377.9 235.9L379.2 254.3" class="d"/><path d="M383.4 235.6L384.4 253.9" class="d"/><path d="M388.9 235.3L389.6 253.7" class="d"/><path d="M394.5 235.2L394.8 253.6" class="d"/><path d="M372.4 236.5L374.6 262.5" class="b"/><path d="M405.5 235.2L405.2 253.6" class="d"/><path d="M411.1 235.3L410.4 253.7" class="d"/><path d="M416.6 235.6L415.6 253.9" class="d"/><path d="M422.1 235.9L420.8 254.3" class="d"/><path d="M433.2 236.9L431.2 255.2" class="d"/><path d="M438.7 237.5L436.4 255.8" class="d"/><path d="M444.1 238.2L441.6 256.4" class="d"/><path d="M449.6 239L446.7 257.2" class="d"/><path d="M427.6 236.5L425.4 262.5" class="b"/><path d="M460.5 241L457 259" class="d"/><path d="M466 242.1L462.1 260.1" class="d"/><path d="M471.4 243.3L467.2 261.2" class="d"/><path d="M476.7 244.6L472.3 262.4" class="d"/><path d="M487.4 247.4L482.4 265.1" class="d"/><path d="M492.7 249L487.4 266.6" class="d"/><path d="M498 250.7L492.3 268.2" class="d"/><path d="M503.3 252.4L497.3 269.8" class="d"/><path d="M482.1 246.1L475.3 271.3" class="b"/><path d="M513.7 256.2L507.1 273.4" class="d"/><path d="M518.8 258.2L511.9 275.3" class="d"/><path d="M524 260.4L516.8 277.3" class="d"/><path d="M529 262.6L521.5 279.4" class="d"/><path d="M539.1 267.2L531 283.8" class="d"/><path d="M544 269.7L535.7 286.1" class="d"/><path d="M548.9 272.3L540.3 288.5" class="d"/><path d="M553.8 274.9L544.9 291" class="d"/><path d="M534 265L523 288.6" class="b"/><path d="M563.4 280.4L553.9 296.2" class="d"/><path d="M568.1 283.3L558.4 298.9" class="d"/><path d="M572.8 286.3L562.8 301.7" class="d"/><path d="M577.4 289.4L567.1 304.6" class="d"/><path d="M586.5 295.7L575.6 310.6" class="d"/><path d="M590.9 299L579.8 313.7" class="d"/><path d="M595.3 302.4L584 316.9" class="d"/><path d="M599.6 305.8L588.1 320.1" class="d"/><path d="M581.9 292.6L566.9 314" class="b"/><path d="M608.1 312.9L596 326.8" class="d"/><path d="M612.3 316.6L600 330.3" class="d"/><path d="M616.3 320.4L603.8 333.8" class="d"/><path d="M620.4 324.2L607.6 337.4" class="d"/><path d="M628.2 332L615 344.8" class="d"/><path d="M632 336L618.5 348.6" class="d"/><path d="M635.7 340.1L622.1 352.4" class="d"/><path d="M639.4 344.2L625.5 356.3" class="d"/><path d="M624.2 328.1L605.8 346.6" class="b"/><path d="M646.5 352.7L632.2 364.3" class="d"/><path d="M650 357.1L635.5 368.4" class="d"/><path d="M653.4 361.4L638.7 372.5" class="d"/><path d="M656.6 365.9L641.8 376.7" class="d"/><path d="M663 375L647.7 385.3" class="d"/><path d="M666.1 379.6L650.6 389.6" class="d"/><path d="M669 384.3L653.4 394" class="d"/><path d="M671.9 389L656.1 398.5" class="d"/><path d="M659.8 370.5L638.4 385.4" class="b"/><path d="M677.5 398.6L661.4 407.5" class="d"/><path d="M680.1 403.4L663.8 412.1" class="d"/><path d="M682.7 408.3L666.3 416.7" class="d"/><path d="M685.1 413.3L668.6 421.4" class="d"/><path d="M689.8 423.3L673 430.8" class="d"/><path d="M692 428.4L675.1 435.6" class="d"/><path d="M694.1 433.5L677.1 440.4" class="d"/><path d="M696.2 438.7L679 445.3" class="d"/><path d="M687.4 418.4L663.7 429.4" class="b"/><path d="M699.9 449.1L682.5 455.1" class="d"/><path d="M701.7 454.3L684.2 460" class="d"/><path d="M703.4 459.6L685.8 465" class="d"/><path d="M704.9 464.9L687.3 470" class="d"/><path d="M707.8 475.6L690 480.1" class="d"/><path d="M709.1 481L691.2 485.1" class="d"/><path d="M710.3 486.4L692.3 490.2" class="d"/><path d="M711.4 491.8L693.3 495.3" class="d"/><path d="M706.3 470.3L681.1 477" class="b"/><path d="M713.3 502.7L695.1 505.6" class="d"/><path d="M714.1 508.2L695.9 510.8" class="d"/><path d="M714.9 513.7L696.6 515.9" class="d"/><path d="M715.5 519.2L697.2 521.1" class="d"/><path d="M716.5 530.2L698.1 531.5" class="d"/><path d="M716.8 535.8L698.4 536.7" class="d"/><path d="M717 541.3L698.6 541.9" class="d"/><path d="M717.2 546.8L698.8 547.1" class="d"/><path d="M715.9 524.7L689.9 527" class="b"/><path d="M717.2 557.9L698.8 557.6" class="d"/><path d="M717 563.4L698.6 562.8" class="d"/><path d="M716.8 569L698.4 568" class="d"/><path d="M716.5 574.5L698.1 573.2" class="d"/><path d="M715.5 585.5L697.2 583.6" class="d"/><path d="M714.9 591L696.6 588.8" class="d"/><path d="M714.1 596.5L695.9 594" class="d"/><path d="M713.3 602L695.1 599.1" class="d"/><path d="M715.9 580L689.9 577.7" class="b"/><path d="M711.4 612.9L693.3 609.4" class="d"/><path d="M710.3 618.3L692.3 614.5" class="d"/><path d="M709.1 623.7L691.2 619.6" class="d"/><path d="M707.8 629.1L690 624.7" class="d"/><path d="M704.9 639.8L687.3 634.7" class="d"/><path d="M703.4 645.1L685.8 639.7" class="d"/><path d="M701.7 650.4L684.2 644.7" class="d"/><path d="M699.9 655.6L682.5 649.7" class="d"/><path d="M706.3 634.4L681.1 627.7" class="b"/><path d="M696.2 666L679 659.5" class="d"/><path d="M694.1 671.2L677.1 664.3" class="d"/><path d="M692 676.3L675.1 669.1" class="d"/><path d="M689.8 681.4L673 673.9" class="d"/><path d="M685.1 691.4L668.6 683.4" class="d"/><path d="M682.7 696.4L666.3 688" class="d"/><path d="M680.1 701.3L663.8 692.7" class="d"/><path d="M677.5 706.2L661.4 697.2" class="d"/><path d="M687.4 686.4L663.7 675.3" class="b"/><path d="M671.9 715.7L656.1 706.3" class="d"/><path d="M669 720.5L653.4 710.7" class="d"/><path d="M666.1 725.1L650.6 715.1" class="d"/><path d="M663 729.8L647.7 719.5" class="d"/><path d="M656.6 738.8L641.8 728" class="d"/><path d="M653.4 743.3L638.7 732.2" class="d"/><path d="M650 747.7L635.5 736.3" class="d"/><path d="M646.5 752L632.2 740.4" class="d"/><path d="M659.8 734.2L638.4 719.3" class="b"/><path d="M639.4 760.5L625.5 748.4" class="d"/><path d="M635.7 764.6L622.1 752.3" class="d"/><path d="M632 768.7L618.5 756.2" class="d"/><path d="M628.2 772.7L615 759.9" class="d"/><path d="M620.4 780.6L607.6 767.3" class="d"/><path d="M616.3 784.4L603.8 770.9" class="d"/><path d="M612.3 788.1L600 774.4" class="d"/><path d="M608.1 791.8L596 777.9" class="d"/><path d="M624.2 776.6L605.8 758.1" class="b"/><path d="M599.6 798.9L588.1 784.6" class="d"/><path d="M595.3 802.3L584 787.8" class="d"/><path d="M590.9 805.7L579.8 791" class="d"/><path d="M586.5 809L575.6 794.1" class="d"/><path d="M577.4 815.4L567.1 800.1" class="d"/><path d="M572.8 818.4L562.8 803" class="d"/><path d="M568.1 821.4L558.4 805.8" class="d"/><path d="M563.4 824.3L553.9 808.5" class="d"/><path d="M581.9 812.1L566.9 790.7" class="b"/><path d="M553.8 829.8L544.9 813.7" class="d"/><path d="M548.9 832.5L540.3 816.2" class="d"/><path d="M544 835L535.7 818.6" class="d"/><path d="M539.1 837.5L531 820.9" class="d"/><path d="M529 842.2L521.5 825.4" class="d"/><path d="M524 844.4L516.8 827.4" class="d"/><path d="M518.8 846.5L511.9 829.4" class="d"/><path d="M513.7 848.5L507.1 831.3" class="d"/><path d="M534 839.7L523 816.1" class="b"/><path d="M503.3 852.3L497.3 834.9" class="d"/><path d="M498 854.1L492.3 836.6" class="d"/><path d="M492.7 855.7L487.4 838.1" class="d"/><path d="M487.4 857.3L482.4 839.6" class="d"/><path d="M476.7 860.2L472.3 842.3" class="d"/><path d="M471.4 861.5L467.2 843.5" class="d"/><path d="M466 862.7L462.1 844.7" class="d"/><path d="M460.5 863.8L457 845.7" class="d"/><path d="M482.1 858.7L475.3 833.5" class="b"/><path d="M449.6 865.7L446.7 847.5" class="d"/><path d="M444.1 866.5L441.6 848.3" class="d"/><path d="M438.7 867.2L436.4 849" class="d"/><path d="M433.2 867.9L431.2 849.6" class="d"/><path d="M422.1 868.8L420.8 850.5" class="d"/><path d="M416.6 869.2L415.6 850.8" class="d"/><path d="M411.1 869.4L410.4 851" class="d"/><path d="M405.5 869.5L405.2 851.1" class="d"/><path d="M427.6 868.3L425.4 842.3" class="b"/><path d="M394.5 869.5L394.8 851.1" class="d"/><path d="M388.9 869.4L389.6 851" class="d"/><path d="M383.4 869.2L384.4 850.8" class="d"/><path d="M377.9 868.8L379.2 850.5" class="d"/><path d="M366.8 867.9L368.8 849.6" class="d"/><path d="M361.3 867.2L363.6 849" class="d"/><path d="M355.9 866.5L358.4 848.3" class="d"/><path d="M350.4 865.7L353.3 847.5" class="d"/><path d="M372.4 868.3L374.6 842.3" class="b"/><path d="M339.5 863.8L343 845.7" class="d"/><path d="M334 862.7L337.9 844.7" class="d"/><path d="M328.6 861.5L332.8 843.5" class="d"/><path d="M323.3 860.2L327.7 842.3" class="d"/><path d="M312.6 857.3L317.6 839.6" class="d"/><path d="M307.3 855.7L312.6 838.1" class="d"/><path d="M302 854.1L307.7 836.6" class="d"/><path d="M296.7 852.3L302.7 834.9" class="d"/><path d="M317.9 858.7L324.7 833.5" class="b"/><path d="M286.3 848.5L292.9 831.3" class="d"/><path d="M281.2 846.5L288.1 829.4" class="d"/><path d="M276 844.4L283.2 827.4" class="d"/><path d="M271 842.2L278.5 825.4" class="d"/><path d="M260.9 837.5L269 820.9" class="d"/><path d="M256 835L264.3 818.6" class="d"/><path d="M251.1 832.5L259.7 816.2" class="d"/><path d="M246.2 829.8L255.1 813.7" class="d"/><path d="M266 839.7L277 816.1" class="b"/><path d="M236.6 824.3L246.1 808.5" class="d"/><path d="M231.9 821.4L241.6 805.8" class="d"/><path d="M227.2 818.4L237.2 803" class="d"/><path d="M222.6 815.4L232.9 800.1" class="d"/><path d="M213.5 809L224.4 794.1" class="d"/><path d="M209.1 805.7L220.2 791" class="d"/><path d="M204.7 802.3L216 787.8" class="d"/><path d="M200.4 798.9L211.9 784.6" class="d"/><path d="M218.1 812.1L233.1 790.7" class="b"/><path d="M191.9 791.8L204 777.9" class="d"/><path d="M187.7 788.1L200 774.4" class="d"/><path d="M183.7 784.4L196.2 770.9" class="d"/><path d="M179.6 780.6L192.4 767.3" class="d"/><path d="M171.8 772.7L185 759.9" class="d"/><path d="M168 768.7L181.5 756.2" class="d"/><path d="M164.3 764.6L177.9 752.3" class="d"/><path d="M160.6 760.5L174.5 748.4" class="d"/><path d="M175.8 776.6L194.2 758.1" class="b"/><path d="M153.5 752L167.8 740.4" class="d"/><path d="M150 747.7L164.5 736.3" class="d"/><path d="M146.6 743.3L161.3 732.2" class="d"/><path d="M143.4 738.8L158.2 728" class="d"/><path d="M137 729.8L152.3 719.5" class="d"/><path d="M133.9 725.1L149.4 715.1" class="d"/><path d="M131 720.5L146.6 710.7" class="d"/><path d="M128.1 715.7L143.9 706.3" class="d"/><path d="M140.2 734.2L161.6 719.3" class="b"/><path d="M122.5 706.2L138.6 697.2" class="d"/><path d="M119.9 701.3L136.2 692.7" class="d"/><path d="M117.3 696.4L133.7 688" class="d"/><path d="M114.9 691.4L131.4 683.4" class="d"/><path d="M110.2 681.4L127 673.9" class="d"/><path d="M108 676.3L124.9 669.1" class="d"/><path d="M105.9 671.2L122.9 664.3" class="d"/><path d="M103.8 666L121 659.5" class="d"/><path d="M112.6 686.4L136.3 675.3" class="b"/><path d="M100.1 655.6L117.5 649.7" class="d"/><path d="M98.3 650.4L115.8 644.7" class="d"/><path d="M96.6 645.1L114.2 639.7" class="d"/><path d="M95.1 639.8L112.7 634.7" class="d"/><path d="M92.2 629.1L110 624.7" class="d"/><path d="M90.9 623.7L108.8 619.6" class="d"/><path d="M89.7 618.3L107.7 614.5" class="d"/><path d="M88.6 612.9L106.7 609.4" class="d"/><path d="M93.7 634.4L118.9 627.7" class="b"/><path d="M86.7 602L104.9 599.1" class="d"/><path d="M85.9 596.5L104.1 594" class="d"/><path d="M85.1 591L103.4 588.8" class="d"/><path d="M84.5 585.5L102.8 583.6" class="d"/><path d="M83.5 574.5L101.9 573.2" class="d"/><path d="M83.2 569L101.6 568" class="d"/><path d="M83 563.4L101.4 562.8" class="d"/><path d="M82.8 557.9L101.2 557.6" class="d"/><path d="M84.1 580L110.1 577.7" class="b"/></g></svg>
